<svg version="1.1" viewBox="0.0 0.0 480.3543307086614 128.09448818897638" fill="none" stroke="none" stroke-linecap="square" stroke-miterlimit="10" xmlns:xlink="http://www.w3.org/1999/xlink" xmlns="http://www.w3.org/2000/svg"><clipPath id="p.0"><path d="m0 0l480.35434 0l0 128.09448l-480.35434 0l0 -128.09448z" clip-rule="nonzero"/></clipPath><g clip-path="url(#p.0)"><path fill="#000000" fill-opacity="0.0" d="m0 0l480.35434 0l0 128.09448l-480.35434 0z" fill-rule="evenodd"/><path fill="#000000" fill-opacity="0.0" d="m-16.590551 -36.65354l516.53546 0l0 190.29922l-516.53546 0z" fill-rule="evenodd"/><path fill="#000000" d="m-1.0280511 -0.53792745l32.8125 0q15.546877 0 23.546877 2.421875q8.015625 2.421875 12.937496 9.8125q4.921875 7.375 4.921875 23.781252q0 11.09375 -3.484375 15.46875q-3.46875 4.375 -13.703121 6.71875q11.406246 2.578125 15.468746 8.5625q4.0625 5.96875 4.0625 18.3125l0 11.71875q0 12.8125 -2.9375 18.984375q-2.921875 6.171875 -9.328121 8.4375q-6.40625 2.265625 -26.25 2.265625l-38.046875 0l0 -126.484375zm32.890625 21.640625l0 28.125002q2.109377 -0.078125 3.281252 -0.078125q4.84375 0 6.171875 -2.375q1.328125 -2.390625 1.328125 -13.640625q0 -5.937502 -1.09375 -8.312502q-1.09375 -2.390625 -2.859375 -3.015625q-1.75 -0.625 -6.828127 -0.703125zm0 47.8125l0 35.390625q6.953127 -0.234375 8.859377 -2.1875q1.921875 -1.953125 1.921875 -9.609375l0 -11.796875q0 -8.125 -1.71875 -9.84375q-1.71875 -1.71875 -9.062502 -1.953125zm126.01563 7.03125l-40.859383 0l0 22.421875q0 7.03125 1.015625 9.0625q1.015625 2.03125 3.90625 2.03125q3.59375 0 4.796875 -2.6875q1.21875 -2.703125 1.21875 -10.4375l0 -13.671875l29.921883 0l0 7.65625q0 9.609375 -1.21875 14.765625q-1.203125 5.15625 -5.65625 11.015625q-4.453125 5.859375 -11.296875 8.796875q-6.828125 2.921875 -17.140633 2.921875q-10.0 0 -17.65625 -2.890625q-7.65625 -2.890625 -11.921875 -7.921875q-4.25 -5.046875 -5.890625 -11.09375q-1.640625 -6.0625 -1.640625 -17.625l0 -30.234375q0 -13.59375 3.671875 -21.4375q3.671875 -7.859377 12.03125 -12.031252q8.359375 -4.1875 19.21875 -4.1875q13.281258 0 21.906258 5.046875q8.640625 5.03125 12.109375 13.359377q3.484375 8.3125 3.484375 23.390625l0 13.75zm-31.640633 -16.875l0 -7.578125q0 -8.046875 -0.859375 -10.390625q-0.859375 -2.34375 -3.515625 -2.34375q-3.28125 0 -4.0625 2.0q-0.78125 1.984375 -0.78125 10.734375l0 7.578125l9.21875 0zm75.23438 -50.625l0 16.328125l8.515625 0l0 16.406252l-8.515625 0l0 55.46875q0 10.234375 1.046875 11.40625q1.0625 1.171875 8.796875 1.171875l0 16.71875l-12.734375 0q-10.78125 0 -15.390625 -0.890625q-4.609375 -0.90625 -8.125 -4.140625q-3.515625 -3.25 -4.375 -7.421875q-0.859375 -4.1875 -0.859375 -19.65625l0 -52.65625l-6.796875 0l0 -16.406252l6.796875 0l0 -16.328125l31.640625 0zm117.421875 13.828125l-12.578125 103.671875l-34.296875 0q-2.8125 -18.984375 -6.484375 -50.0q-1.25 13.59375 -3.515625 27.5l-3.515625 22.5l-34.296875 0l-13.359375 -103.671875l27.1875 0q0.3125 4.0625 6.875 59.296875q0.46875 -5.625 7.03125 -59.296875l26.171875 0l6.40625 59.296875q1.484375 -25.9375 7.1875 -59.296875l27.1875 0zm37.65625 -22.8125l0 16.484375l-32.5 0l0 -16.484375l32.5 0zm0 22.8125l0 103.671875l-32.5 0l0 -103.671875l32.5 0zm73.828125 0l-12.578125 49.53125l15.234375 54.140625l-30.703125 0q-4.53125 -20.46875 -6.875 -35.234375q-3.125 18.4375 -6.796875 35.234375l-26.40625 0l13.59375 -54.140625l-13.59375 -49.53125l26.40625 0q6.328125 31.718752 6.796875 36.015625q4.53125 -26.484377 6.875 -36.015625l28.046875 0zm40.15625 -13.828125l0 16.328125l8.515625 0l0 16.406252l-8.515625 0l0 55.46875q0 10.234375 1.046875 11.40625q1.0625 1.171875 8.796875 1.171875l0 16.71875l-12.734375 0q-10.78125 0 -15.390625 -0.890625q-4.609375 -0.90625 -8.125 -4.140625q-3.515625 -3.25 -4.375 -7.421875q-0.859375 -4.1875 -0.859375 -19.65625l0 -52.65625l-6.796875 0l0 -16.406252l6.796875 0l0 -16.328125l31.640625 0z" fill-rule="nonzero"/><path fill="#ffffff" d="m-3.0446193 82.419945l485.19684 0l0 28.944885l-485.19684 0z" fill-rule="evenodd"/><path fill="#000000" fill-opacity="0.0" d="m-3.0446193 96.87664l154.74016 0.03149414" fill-rule="evenodd"/><path stroke="#000000" stroke-width="1.0" stroke-linejoin="round" stroke-linecap="butt" d="m-3.0446193 96.87664l148.74016 0.030273438" fill-rule="evenodd"/><path fill="#000000" stroke="#000000" stroke-width="1.0" stroke-linecap="butt" d="m145.6952 98.55865l4.538437 -1.6508102l-4.5377655 -1.6526566z" fill-rule="evenodd"/><path fill="#000000" fill-opacity="0.0" d="m327.41208 96.87664l154.74014 0.03149414" fill-rule="evenodd"/><path stroke="#000000" stroke-width="1.0" stroke-linejoin="round" stroke-linecap="butt" d="m333.41208 96.87786l148.74014 0.030273438" fill-rule="evenodd"/><path fill="#000000" stroke="#000000" stroke-width="1.0" stroke-linecap="butt" d="m333.4124 95.22613l-4.538452 1.6508102l4.537781 1.6526566z" fill-rule="evenodd"/><path fill="#000000" fill-opacity="0.0" d="m-3.0446193 81.31759l485.19684 0l0 31.149605l-485.19684 0z" fill-rule="evenodd"/><path fill="#000000" d="m180.35316 103.01551q0.0625 0.109375 0.0625 0.234375q0 0.234375 -0.171875 0.40625q-0.171875 0.15625 -0.390625 0.15625q-0.375 0 -0.515625 -0.359375l-1.390625 -3.296875l-7.59375 0l-1.375 3.296875q-0.125 0.359375 -0.515625 0.359375q-0.265625 0 -0.421875 -0.15625q-0.140625 -0.171875 -0.140625 -0.40625q0 -0.125 0.046875 -0.234375l5.65625 -13.375q0.15625 -0.40625 0.546875 -0.40625q0.375 0 0.53125 0.40625l5.671875 13.375zm-2.828125 -3.875l-3.375 -8.046875l-3.359375 8.046875l6.734375 0zm15.459091 -9.34375q0 -0.234375 0.15625 -0.390625q0.171875 -0.171875 0.40625 -0.171875q0.21875 0 0.390625 0.171875q0.171875 0.15625 0.171875 0.390625l0 13.453125q0 0.25 -0.171875 0.40625q-0.171875 0.15625 -0.390625 0.15625q-0.265625 0 -0.40625 -0.171875l-9.5 -12.34375l0 11.953125q0 0.25 -0.15625 0.40625q-0.15625 0.15625 -0.40625 0.15625q-0.234375 0 -0.40625 -0.15625q-0.15625 -0.15625 -0.15625 -0.40625l0 -13.453125q0 -0.234375 0.15625 -0.390625q0.171875 -0.171875 0.40625 -0.171875q0.265625 0 0.4375 0.1875l9.46875 12.34375l0 -11.96875zm8.769913 -0.5625q2.109375 0 3.765625 0.9375q1.671875 0.9375 2.59375 2.59375q0.9375 1.640625 0.9375 3.75q0 2.109375 -0.9375 3.78125q-0.921875 1.65625 -2.59375 2.59375q-1.65625 0.921875 -3.765625 0.921875l-3.359375 0q-0.234375 0 -0.40625 -0.15625q-0.15625 -0.15625 -0.15625 -0.40625l0 -13.453125q0 -0.25 0.15625 -0.40625q0.171875 -0.15625 0.40625 -0.15625l3.359375 0zm0 13.578125q1.796875 0 3.1875 -0.8125q1.40625 -0.8125 2.1875 -2.25q0.796875 -1.4375 0.796875 -3.234375q0 -1.78125 -0.796875 -3.203125q-0.78125 -1.4375 -2.1875 -2.25q-1.390625 -0.8125 -3.1875 -0.8125l-2.796875 0l0 12.5625l2.796875 0zm20.882431 -13.578125q1.015625 0 1.890625 0.46875q0.890625 0.453125 1.390625 1.265625q0.515625 0.796875 0.515625 1.796875q0 1.046875 -0.5625 1.875q-0.546875 0.828125 -1.484375 1.25q1.3125 0.34375 2.0625 1.3125q0.75 0.953125 0.75 2.375q0 1.234375 -0.546875 2.203125q-0.546875 0.953125 -1.53125 1.5q-0.984375 0.53125 -2.203125 0.53125l-4.6875 0q-0.34375 0 -0.546875 -0.140625q-0.1875 -0.140625 -0.1875 -0.421875l0 -13.453125q0 -0.25 0.15625 -0.40625q0.171875 -0.15625 0.40625 -0.15625l4.578125 0zm0 6.171875q1.1875 0 1.9375 -0.734375q0.75 -0.734375 0.75 -1.90625q0 -1.140625 -0.75 -1.765625q-0.734375 -0.640625 -1.9375 -0.640625l-4.015625 0l0 5.046875l4.015625 0zm0.28125 7.28125q0.90625 0 1.625 -0.390625q0.71875 -0.40625 1.125 -1.109375q0.421875 -0.71875 0.421875 -1.609375q0 -0.875 -0.421875 -1.578125q-0.40625 -0.703125 -1.125 -1.09375q-0.71875 -0.390625 -1.625 -0.390625l-4.296875 0l0 6.171875l4.296875 0zm16.717972 0q0.21875 0 0.375 0.171875q0.171875 0.171875 0.171875 0.390625q0 0.25 -0.171875 0.40625q-0.15625 0.15625 -0.375 0.15625l-8.984375 0q-0.234375 0 -0.40625 -0.15625q-0.15625 -0.15625 -0.15625 -0.40625l0 -13.453125q0 -0.234375 0.15625 -0.390625q0.171875 -0.171875 0.40625 -0.171875l8.984375 0q0.21875 0 0.375 0.171875q0.171875 0.15625 0.171875 0.390625q0 0.234375 -0.171875 0.40625q-0.15625 0.15625 -0.375 0.15625l-8.421875 0l0 5.59375l6.171875 0q0.25 0 0.40625 0.171875q0.15625 0.15625 0.15625 0.390625q0 0.25 -0.15625 0.421875q-0.15625 0.15625 -0.40625 0.15625l-6.171875 0l0 5.59375l8.421875 0zm12.735687 -13.453125q0.21875 0 0.359375 0.140625q0.140625 0.140625 0.140625 0.375q0 0.21875 -0.140625 0.359375q-0.140625 0.140625 -0.359375 0.140625l-4.71875 0l0 13.0q0 0.25 -0.15625 0.40625q-0.15625 0.15625 -0.40625 0.15625q-0.234375 0 -0.40625 -0.15625q-0.15625 -0.15625 -0.15625 -0.40625l0 -13.0l-4.71875 0q-0.21875 0 -0.359375 -0.140625q-0.140625 -0.140625 -0.140625 -0.359375q0 -0.234375 0.140625 -0.375q0.140625 -0.140625 0.359375 -0.140625l10.5625 0zm17.189072 0q0.234375 0 0.375 0.171875q0.15625 0.15625 0.15625 0.40625q0 0.078125 -0.03125 0.265625l-3.84375 13.25q-0.078125 0.21875 -0.234375 0.359375q-0.15625 0.125 -0.34375 0.125q-0.234375 0 -0.390625 -0.125q-0.140625 -0.140625 -0.1875 -0.359375l-3.171875 -11.21875l-3.140625 11.21875q-0.1875 0.484375 -0.59375 0.484375q-0.203125 0 -0.359375 -0.140625q-0.15625 -0.140625 -0.21875 -0.34375l-3.859375 -13.25q-0.046875 -0.1875 -0.046875 -0.234375q0 -0.265625 0.15625 -0.4375q0.15625 -0.171875 0.40625 -0.171875q0.4375 0 0.546875 0.4375l3.375 11.671875l3.203125 -11.1875q0.046875 -0.15625 0.203125 -0.25q0.15625 -0.109375 0.328125 -0.109375q0.1875 0 0.328125 0.109375q0.15625 0.09375 0.203125 0.265625l3.21875 11.171875l3.375 -11.734375q0.03125 -0.15625 0.171875 -0.265625q0.15625 -0.109375 0.375 -0.109375zm12.499573 13.453125q0.21875 0 0.375 0.171875q0.171875 0.171875 0.171875 0.390625q0 0.25 -0.171875 0.40625q-0.15625 0.15625 -0.375 0.15625l-8.984375 0q-0.234375 0 -0.40625 -0.15625q-0.15625 -0.15625 -0.15625 -0.40625l0 -13.453125q0 -0.234375 0.15625 -0.390625q0.171875 -0.171875 0.40625 -0.171875l8.984375 0q0.21875 0 0.375 0.171875q0.171875 0.15625 0.171875 0.390625q0 0.234375 -0.171875 0.40625q-0.15625 0.15625 -0.375 0.15625l-8.421875 0l0 5.59375l6.171875 0q0.25 0 0.40625 0.171875q0.15625 0.15625 0.15625 0.390625q0 0.25 -0.15625 0.421875q-0.15625 0.15625 -0.40625 0.15625l-6.171875 0l0 5.59375l8.421875 0zm12.798187 0q0.21875 0 0.375 0.171875q0.171875 0.171875 0.171875 0.390625q0 0.25 -0.171875 0.40625q-0.15625 0.15625 -0.375 0.15625l-8.984375 0q-0.234375 0 -0.40625 -0.15625q-0.15625 -0.15625 -0.15625 -0.40625l0 -13.453125q0 -0.234375 0.15625 -0.390625q0.171875 -0.171875 0.40625 -0.171875l8.984375 0q0.21875 0 0.375 0.171875q0.171875 0.15625 0.171875 0.390625q0 0.234375 -0.171875 0.40625q-0.15625 0.15625 -0.375 0.15625l-8.421875 0l0 5.59375l6.171875 0q0.25 0 0.40625 0.171875q0.15625 0.15625 0.15625 0.390625q0 0.25 -0.15625 0.421875q-0.15625 0.15625 -0.40625 0.15625l-6.171875 0l0 5.59375l8.421875 0zm13.720062 -12.890625q0 -0.234375 0.15625 -0.390625q0.171875 -0.171875 0.40625 -0.171875q0.21875 0 0.390625 0.171875q0.171875 0.15625 0.171875 0.390625l0 13.453125q0 0.25 -0.171875 0.40625q-0.171875 0.15625 -0.390625 0.15625q-0.265625 0 -0.40625 -0.171875l-9.5 -12.34375l0 11.953125q0 0.25 -0.15625 0.40625q-0.15625 0.15625 -0.40625 0.15625q-0.234375 0 -0.40625 -0.15625q-0.15625 -0.15625 -0.15625 -0.40625l0 -13.453125q0 -0.234375 0.15625 -0.390625q0.171875 -0.171875 0.40625 -0.171875q0.265625 0 0.4375 0.1875l9.46875 12.34375l0 -11.96875z" fill-rule="nonzero"/></g></svg>